Coordinates
version=1
nRows=19
nColumns=34
inDegrees=yes

Units are S.I. units (second, meters, Newtons, ...)
If the header above contains a line with 'inDegrees', this indicates whether rotational values are in degrees (yes) or radians (no).

endheader
time	pelvis_tilt	pelvis_list	pelvis_rotation	pelvis_tx	pelvis_ty	pelvis_tz	hip_flexion_r	hip_adduction_r	hip_rotation_r	knee_angle_r	ankle_angle_r	subtalar_angle_r	mtp_angle_r	hip_flexion_l	hip_adduction_l	hip_rotation_l	knee_angle_l	ankle_angle_l	subtalar_angle_l	mtp_angle_l	lumbar_extension	lumbar_bending	lumbar_rotation	arm_flex_r	arm_add_r	arm_rot_r	elbow_flex_r	pro_sup_r	arm_flex_l	arm_add_l	arm_rot_l	elbow_flex_l	pro_sup_l
      8.95000000	      8.19054850	     -8.34585262	    -40.43159432	      1.38270310	      1.00593173	      0.32561506	     -0.86140562	     -5.37061716	     -2.24453614	     36.20896866	      7.91326033	     -6.85018261	      0.00000000	    -15.32202252	      4.62602011	     -3.84642782	      3.29046323	     15.63200417	     -5.09461185	      0.00000000	     -6.94494464	      2.04691698	      6.58487917	     11.64633779	     -8.54910494	     14.75297334	     16.48477635	    117.44093265	     17.91492545	    -12.28618295	      6.05086525	     28.65175057	    117.88215219
      8.96666670	      8.21519233	     -8.50375262	    -40.36769163	      1.38260368	      1.00613155	      0.32588275	     -2.54565955	     -5.01417802	     -2.26829459	     33.08771927	      7.89919063	     -6.83486677	      0.00000000	    -15.64347746	      4.50513492	     -3.98910024	      2.94721477	     15.54098965	     -4.79773281	      0.00000000	     -7.02818038	      2.36434907	      6.52388979	     11.56828423	     -8.43872120	     14.28916806	     16.47486223	    117.36883556	     18.68220902	    -12.41279732	      6.60506973	     28.58156673	    118.19078411
      8.98333330	      8.13374743	     -8.17803515	    -40.51729861	      1.38228080	      1.00539962	      0.32663335	     -3.62907392	     -4.99778492	     -2.00624240	     30.25745189	      8.52882184	     -6.67745433	      0.00000000	    -15.38228578	      4.71834697	     -4.18949822	      2.89314980	     15.44339047	     -4.81238433	      0.00000000	     -6.66651145	      2.27357154	      6.62306634	     11.44283208	     -8.26982188	     14.15665140	     16.35924377	    117.35214490	     19.27604137	    -12.48096277	      6.70855795	     28.64661692	    118.28261998
      9.00000000	      8.27171047	     -8.55505951	    -40.42446963	      1.38271916	      1.00589001	      0.32776838	     -5.94802958	     -4.46952943	     -1.63987638	     26.49372327	      8.63262216	     -5.92382058	      0.00000000	    -16.00075555	      4.44035305	     -4.19838293	      2.59634951	     15.59944094	     -4.53460913	      0.00000000	     -6.90815521	      2.67009528	      6.52021546	     11.37664380	     -8.21881785	     13.75403079	     16.23742873	    117.27020963	     19.79539249	    -12.52577077	      7.20658134	     28.54669600	    118.56071095
      9.01666670	      8.42760739	     -8.52627123	    -40.27484566	      1.38267481	      1.00579935	      0.32921935	     -7.88645055	     -4.24050199	     -1.10094238	     22.98564849	      8.92477772	     -5.50597946	      0.00000000	    -16.24836685	      4.43214044	     -4.11921737	      2.45344531	     15.65415326	     -4.26685787	      0.00000000	     -6.92595002	      2.56871391	      6.40210145	     11.21326464	     -8.00753737	     13.45306576	     16.20610012	    117.21856800	     20.21993260	    -12.74791345	      7.79182399	     28.73321479	    118.86667547
      9.03333330	      8.47352098	     -8.01617392	    -40.26633882	      1.38220776	      1.00472644	      0.33064642	     -9.10061721	     -4.38969327	     -0.27433005	     20.09664436	      9.98112248	     -5.09448584	      0.00000000	    -15.92870132	      4.77334455	     -4.12098962	      2.51520167	     15.72211995	     -4.31038570	      0.00000000	     -6.53332177	      2.11811458	      6.40334669	     11.06810803	     -7.75687247	     13.36646813	     16.09075386	    117.20793333	     20.55452758	    -12.89832653	      8.03654393	     28.84462181	    118.99141700
      9.05000000	      8.57285230	     -7.29759919	    -40.33976927	      1.38163521	      1.00331310	      0.33213712	    -10.17344762	     -4.80382130	      0.76623491	     17.32022897	     11.03445649	     -4.46697545	      0.00000000	    -15.46224680	      5.34365132	     -3.88198856	      2.69624391	     16.01234864	     -4.35068474	      0.00000000	     -6.06604550	      1.41250066	      6.64987012	     10.85610648	     -7.55983900	     13.32763014	     15.88628934	    117.20234570	     20.86043665	    -12.96412275	      8.18622868	     29.03695104	    119.05785019
      9.06666670	      8.81377344	     -7.83370685	    -39.93380996	      1.38209504	      1.00402170	      0.33340030	    -12.22529112	     -4.26904576	      1.19904389	     14.83013319	     11.53871463	     -3.50845458	      0.00000000	    -16.36524343	      4.91260997	     -3.62898019	      2.24880836	     16.02840182	     -4.06091942	      0.00000000	     -6.51097743	      1.86959307	      6.25797645	     10.88949069	     -7.48145235	     12.94309994	     15.73463565	    117.10900047	     20.93930686	    -13.11662815	      9.29545572	     29.14665811	    119.44517271
      9.08333330	      8.83880096	     -7.75326817	    -39.69579798	      1.38166977	      1.00401292	      0.33392855	    -12.65886366	     -4.14174104	      1.78343869	     14.10947009	     12.20322340	     -3.27267291	      0.00000000	    -16.26324528	      4.85559216	     -3.50013791	      2.37619875	     15.86977768	     -3.97248154	      0.00000000	     -6.43880628	      1.92079169	      6.08002931	     10.87790333	     -7.42554502	     12.89628351	     15.72282907	    117.10242532	     21.08436057	    -12.96588744	      9.46271312	     29.09378029	    119.51084239
      9.10000000	      8.89709966	     -7.82788835	    -39.49227953	      1.38130243	      1.00433294	      0.33462079	    -13.20005527	     -3.91066614	      2.29134654	     13.45743270	     12.83323835	     -3.04582350	      0.00000000	    -16.32307288	      4.71576368	     -3.42462193	      2.48428273	     15.82197420	     -3.97739746	      0.00000000	     -6.49587909	      2.10638786	      5.85074185	     10.98433743	     -7.40129732	     12.82968420	     15.67837912	    117.09213339	     21.15648925	    -12.80686666	      9.70337641	     28.93419534	    119.60023926
      9.11666670	      9.05079171	     -8.03373003	    -39.21889727	      1.38118722	      1.00479854	      0.33553867	    -13.98157875	     -3.60947591	      2.82921858	     12.76935191	     13.64783549	     -2.78086669	      0.00000000	    -16.57606545	      4.51161386	     -3.32015725	      2.61152180	     15.94008065	     -4.06877452	      0.00000000	     -6.74091132	      2.32026359	      5.68806130	     11.14634232	     -7.44605645	     12.71778885	     15.55224650	    117.07539752	     21.23921444	    -12.58189113	     10.09406652	     28.70174821	    119.74817918
      9.13333330	      9.12562744	     -8.30117206	    -39.02830306	      1.38125827	      1.00515096	      0.33676425	    -14.60902967	     -3.21944503	      3.29245006	     12.36897450	     14.83806133	     -2.64181580	      0.00000000	    -16.79896852	      4.21464212	     -3.19556969	      2.81502997	     15.97471770	     -4.11454263	      0.00000000	     -6.89234921	      2.65518818	      5.58089801	     11.24233742	     -7.52819150	     12.62398794	     15.48666422	    117.06139400	     21.09124844	    -12.31978059	     10.45088290	     28.53687986	    119.74817918
      9.15000000	      9.15112208	     -8.53232371	    -38.77589649	      1.38136824	      1.00533099	      0.33782401	    -15.00652671	     -2.81629353	      3.60072180	     12.27882427	     16.01757994	     -2.64763716	      0.00000000	    -16.95722289	      3.89828360	     -3.11570289	      2.95684925	     16.00412818	     -4.13597512	      0.00000000	     -6.98317174	      2.99415026	      5.49341931	     11.29538304	     -7.66928679	     12.56130936	     15.42484792	    117.05085227	     20.89794423	    -11.95532002	     10.70700532	     28.47126014	    119.74817918
      9.16666670	      9.22764752	     -8.79932358	    -38.56622224	      1.38176054	      1.00558139	      0.33909055	    -15.43350376	     -2.44967184	      3.97185453	     12.29301241	     17.12434712	     -2.49748815	      0.00000000	    -17.11766580	      3.59033519	     -3.01988755	      3.27793116	     16.14073242	     -4.22051699	      0.00000000	     -7.08538494	      3.32913201	      5.40248616	     11.36738167	     -7.82672616	     12.48773781	     15.38310878	    117.03638670	     20.54949536	    -11.60866838	     10.98852686	     28.36120675	    119.74817918
      9.18333330	      9.38928067	     -8.96420071	    -38.44122966	      1.38243353	      1.00573101	      0.34091688	    -15.89156122	     -2.27949010	      4.17385501	     12.20791738	     17.70691706	     -2.18486780	      0.00000000	    -17.20332122	      3.44134202	     -2.94296971	      3.83299832	     16.45693164	     -4.42134401	      0.00000000	     -7.11012735	      3.51903725	      5.43427787	     11.38976410	     -7.98834793	     12.39502108	     15.35134827	    117.01716499	     20.05205076	    -11.27509552	     11.30831432	     28.25787636	    119.74817918
      9.20000000	      9.60462547	     -9.00837177	    -38.34966432	      1.38313422	      1.00598414	      0.34280928	    -16.38833654	     -2.27709100	      4.18104887	     11.97287790	     17.90341833	     -1.87888850	      0.00000000	    -17.08205836	      3.40859666	     -2.96024757	      4.70538214	     16.66370558	     -4.64721443	      0.00000000	     -7.08590948	      3.52541353	      5.50316027	     11.35743196	     -8.10718510	     12.31057290	     15.38695223	    116.99996910	     19.42965154	    -10.95934561	     11.61738208	     28.16405931	    119.74817918
      9.21666670	      9.94926316	     -8.95857506	    -38.27333671	      1.38395984	      1.00635699	      0.34501294	    -17.00382434	     -2.45656046	      4.15714135	     11.62084600	     18.06177395	     -1.62611597	      0.00000000	    -16.79788926	      3.51789193	     -3.02610181	      6.03548977	     16.91788965	     -4.89131600	      0.00000000	     -7.09785686	      3.34650866	      5.58385771	     11.33021008	     -8.20142429	     12.23939761	     15.46131439	    116.98824609	     18.75025894	    -10.65619141	     11.87621481	     28.01135396	    119.74817918
      9.23333330	     10.45786833	     -8.80920657	    -37.70455815	      1.38463304	      1.00709742	      0.34678737	    -17.83766266	     -2.68403502	      3.26571635	     11.07494892	     18.05820951	     -1.05625662	      0.00000000	    -15.88089146	      3.53015091	     -3.42313203	      8.67209810	     17.80170697	     -4.22918322	      0.00000000	     -7.18001306	      2.91438976	      5.15946839	     11.32547932	     -8.08020187	     11.93471675	     15.53769358	    116.95632041	     18.17038698	    -10.55884232	     12.56678384	     27.70419331	    119.74817918
      9.25000000	     10.83489862	     -8.57471295	    -37.67675780	      1.38493828	      1.00770822	      0.34921820	    -18.38809886	     -3.05284357	      2.80430534	     10.63499391	     18.50299671	     -0.22510138	      0.00000000	    -14.63200284	      3.48408516	     -5.34960854	     11.70474921	     18.82193647	     -2.20303440	      0.00000000	     -7.10055876	      2.47781668	      5.25446862	     11.24955355	     -8.02508085	     11.56493434	     15.65048647	    117.00953374	     17.41560981	    -10.31710122	     12.95160254	     27.39841565	    119.74817918
